<svg xmlns="http://www.w3.org/2000/svg" viewBox="0 0 100 100">
  <defs>
    <linearGradient id="grad" x1="0%" y1="0%" x2="100%" y2="100%">
      <stop offset="0%" style="stop-color:#10b981;stop-opacity:1" />
      <stop offset="100%" style="stop-color:#3b82f6;stop-opacity:1" />
    </linearGradient>
  </defs>
  <rect width="100" height="100" rx="20" fill="url(#grad)"/>
  <g fill="white" transform="translate(20, 25)">
    <!-- Book icon -->
    <path d="M0 5 L0 45 L25 40 L25 0 L0 5 Z" opacity="0.9"/>
    <path d="M60 5 L60 45 L35 40 L35 0 L60 5 Z" opacity="0.9"/>
    <path d="M25 0 L30 2 L35 0 L35 40 L30 42 L25 40 Z" opacity="0.7"/>
    <!-- Lines on pages -->
    <rect x="5" y="12" width="15" height="2" rx="1" opacity="0.5"/>
    <rect x="5" y="18" width="12" height="2" rx="1" opacity="0.5"/>
    <rect x="5" y="24" width="14" height="2" rx="1" opacity="0.5"/>
    <rect x="40" y="12" width="15" height="2" rx="1" opacity="0.5"/>
    <rect x="40" y="18" width="12" height="2" rx="1" opacity="0.5"/>
    <rect x="40" y="24" width="14" height="2" rx="1" opacity="0.5"/>
  </g>
</svg>
